# xmcd
#
# Track frame offsets:
#	150
#	19170
#	26984
#	42525
#	51122
#	60942
#	70417
#	84751
#	103662
#	118623
#
# Disc length: 1839 seconds
#
# Revision: 0
# Processed by: cddbd v1.4PL0 Copyright (c) Steve Scherf et al.
# Submitted via: dBpowerAMP V4.0
#
DISCID=81072d0a
DTITLE=Wildwood - Out On A Limb
DYEAR=2002
DGENRE=Bluegrass
TTITLE0=Blue Water Levee
TTITLE1=Kentucky Mandolin
TTITLE2=Blackjack County Chains
TTITLE3=(The) Bells of Saint Mary's
TTITLE4=Old Train
TTITLE5=Fireball
TTITLE6=I'm A Lonesome Fugitive
TTITLE7=Star of the County Down
TTITLE8=Dobro Island
TTITLE9=Pancho and Lefty
EXTD=Paul Beeler - 1998 Collings D2H Guitar\nJulio Boysenberry - 1929 Gibson Mastertone Banjo\nDaniel Wolf - 1932 Dobro Double Cyclops\nhttp://www.megagem.com/wildwood.html
EXTT0=
EXTT1=
EXTT2=
EXTT3=
EXTT4=
EXTT5=
EXTT6=
EXTT7=
EXTT8=
EXTT9=
PLAYORDER=
